<?xml version="1.0" encoding="UTF-8"?><svg xmlns="http://www.w3.org/2000/svg" xmlns:xlink="http://www.w3.org/1999/xlink" contentScriptType="text/ecmascript" width="810" zoomAndPan="magnify" contentStyleType="text/css" viewBox="0 0 810 809.999993" height="809.999993" preserveAspectRatio="xMidYMid meet" version="1.0"><path stroke-linecap="round" transform="matrix(3.102397, 0, 0, 3.101252, -254.518138, -253.318004)" fill="none" stroke-linejoin="round" d="M 102.790519 199.820273 C 117.019686 186.079603 132.850437 174.180426 148.200209 161.700587 C 152.989852 157.809769 152.629747 158.819946 154.820593 159.830123 C 139.66976 173.330215 120.020138 187.03058 105.010324 200.510519 Z M 102.790519 199.820273 " stroke="rgb(21.179199%, 37.249756%, 62.748718%)" stroke-width="0.808" stroke-opacity="1" stroke-miterlimit="10"/><path stroke-linecap="round" transform="matrix(3.102397, 0, 0, 3.101252, -254.518138, -253.318004)" fill="none" stroke-linejoin="round" d="M 154.329541 160.980112 C 155.369564 162.079718 156.860346 162.609998 158.299505 163.089895 C 163.290605 164.750011 168.679582 166.280391 173.739933 164.830623 " stroke="rgb(21.179199%, 37.249756%, 62.748718%)" stroke-width="0.808" stroke-opacity="1" stroke-miterlimit="10"/><path stroke-linecap="round" transform="matrix(3.102397, 0, 0, 3.101252, -254.518138, -253.318004)" fill="none" stroke-linejoin="round" d="M 113.929838 199.470112 C 127.519378 187.520553 141.409845 175.909819 155.569762 164.640428 " stroke="rgb(21.179199%, 37.249756%, 62.748718%)" stroke-width="0.808" stroke-opacity="1" stroke-miterlimit="10"/><path stroke-linecap="round" transform="matrix(3.102397, 0, 0, 3.101252, -254.518138, -253.318004)" fill="none" stroke-linejoin="round" d="M 116.28059 198.239511 C 130.709955 188.919937 143.789558 177.990631 157.060544 167.090296 " stroke="rgb(21.179199%, 37.249756%, 62.748718%)" stroke-width="0.808" stroke-opacity="1" stroke-miterlimit="10"/><path stroke-linecap="round" transform="matrix(3.102397, 0, 0, 3.101252, -254.518138, -253.318004)" fill="none" stroke-linejoin="round" d="M 170.660158 165.740034 C 157.809713 175.160373 145.339518 185.109732 133.279792 195.530171 " stroke="rgb(21.179199%, 37.249756%, 62.748718%)" stroke-width="0.808" stroke-opacity="1" stroke-miterlimit="10"/><path fill="rgb(84.309387%, 78.42865%, 70.979309%)" d="M 61.554688 366.15625 C 63.632812 483.847656 60.902344 604.582031 53.394531 722.085938 C 53.207031 724.972656 53.085938 728.074219 54.699219 730.523438 C 55.847656 732.261719 57.738281 733.375 59.597656 734.367188 C 75.855469 743.082031 115.351562 743.671875 133.714844 741.441406 C 138.492188 740.851562 143.519531 739.765625 147.023438 736.539062 C 152.359375 731.640625 152.609375 723.578125 152.421875 716.445312 C 149.664062 598.75 151.367188 481.460938 155.214844 363.707031 C 135.917969 380.019531 83.984375 380.824219 64.066406 365.257812 Z M 61.554688 366.15625 " fill-opacity="1" fill-rule="nonzero"/><path fill="rgb(99.21875%, 82.348633%, 54.119873%)" d="M 155.246094 363.707031 C 197.933594 326.554688 249.433594 283.632812 295.351562 250.542969 C 300.316406 386.4375 293.335938 504.410156 300.128906 633.082031 C 262.960938 657.085938 192.972656 715.046875 147.242188 736.539062 " fill-opacity="1" fill-rule="nonzero"/><path stroke-linecap="round" transform="matrix(3.102397, 0, 0, 3.101252, -254.518138, -253.318004)" fill="none" stroke-linejoin="round" d="M 141.039668 212.729627 C 150.450233 205.730185 159.859539 198.739561 169.260031 191.740119 C 168.849562 196.050374 168.539822 200.369447 168.349696 204.699855 C 158.519849 211.229476 149.120616 218.410296 140.240135 226.199489 C 140.329532 222.949794 140.349677 219.700098 140.440333 216.460479 Z M 141.039668 212.729627 " stroke="rgb(21.179199%, 37.249756%, 62.748718%)" stroke-width="0.808" stroke-opacity="1" stroke-miterlimit="10"/><path stroke-linecap="round" transform="matrix(3.102397, 0, 0, 3.101252, -254.518138, -253.318004)" fill="none" stroke-linejoin="round" d="M 103.869574 210.069411 C 111.950522 213.929999 121.790442 213.889692 129.839912 209.949751 " stroke="rgb(21.179199%, 37.249756%, 62.748718%)" stroke-width="0.808" stroke-opacity="1" stroke-miterlimit="10"/><path stroke-linecap="round" transform="matrix(3.102397, 0, 0, 3.101252, -254.518138, -253.318004)" fill="none" stroke-linejoin="round" d="M 102.809406 218.120595 C 111.859866 221.360214 121.220067 221.469797 130.339778 218.440526 " stroke="rgb(21.179199%, 37.249756%, 62.748718%)" stroke-width="0.808" stroke-opacity="1" stroke-miterlimit="10"/><path stroke-linecap="round" transform="matrix(3.102397, 0, 0, 3.101252, -254.518138, -253.318004)" fill="none" stroke-linejoin="round" d="M 100.949705 302.930095 C 103.71974 304.20982 106.859952 304.339556 109.909509 304.450398 C 117.270248 304.70987 124.170154 305.20992 130.989477 302.419968 " stroke="rgb(21.179199%, 37.249756%, 62.748718%)" stroke-width="0.808" stroke-opacity="1" stroke-miterlimit="10"/><path stroke-linecap="round" transform="matrix(3.102397, 0, 0, 3.101252, -254.518138, -253.318004)" fill="none" stroke-linejoin="round" d="M 100.629892 308.819854 C 110.010238 311.559423 120.159899 311.589652 129.560391 308.920619 " stroke="rgb(21.179199%, 37.249756%, 62.748718%)" stroke-width="0.808" stroke-opacity="1" stroke-miterlimit="10"/><path stroke-linecap="round" transform="matrix(3.102397, 0, 0, 3.101252, -254.518138, -253.318004)" fill="none" stroke-linejoin="round" d="M 111.550126 230.11046 C 108.250007 231.870082 107.410182 236.050602 107.699777 239.670612 C 107.99063 243.410281 110.500031 247.129797 114.160254 247.969931 C 116.809415 248.579564 119.680179 247.589541 121.640608 245.700183 C 123.589706 243.809565 124.670019 241.130456 124.900436 238.429933 C 125.43052 232.159784 118.620011 227.770176 112.69969 229.630563 C 112.280408 229.770376 111.900157 229.930342 111.550126 230.11046 Z M 111.550126 230.11046 " stroke="rgb(21.179199%, 37.249756%, 62.748718%)" stroke-width="0.808" stroke-opacity="1" stroke-miterlimit="10"/><path stroke-linecap="round" transform="matrix(3.102397, 0, 0, 3.101252, -254.518138, -253.318004)" fill="none" stroke-linejoin="round" d="M 155.280167 157.560374 C 174.75981 138.749926 196.450444 122.449805 217.459902 105.359932 C 224.019848 100.029424 223.530056 101.409915 226.520435 102.800482 C 205.770353 121.289739 177.309501 141.049904 156.759618 159.500115 Z M 155.280167 157.560374 " stroke="rgb(21.179199%, 37.249756%, 62.748718%)" stroke-width="1.107" stroke-opacity="1" stroke-miterlimit="10"/><path stroke-linecap="round" transform="matrix(3.102397, 0, 0, 3.101252, -254.518138, -253.318004)" fill="none" stroke-linejoin="round" d="M 225.859404 104.359832 C 227.279676 105.870059 229.329502 106.600611 231.300004 107.25055 C 238.139473 109.520299 245.520358 111.609929 252.440409 109.629881 " stroke="rgb(21.179199%, 37.249756%, 62.748718%)" stroke-width="1.107" stroke-opacity="1" stroke-miterlimit="10"/><path stroke-linecap="round" transform="matrix(3.102397, 0, 0, 3.101252, -254.518138, -253.318004)" fill="none" stroke-linejoin="round" d="M 170.540542 157.0704 C 189.150142 140.70982 208.170211 124.800166 227.57053 109.380486 " stroke="rgb(21.179199%, 37.249756%, 62.748718%)" stroke-width="1.107" stroke-opacity="1" stroke-miterlimit="10"/><path stroke-linecap="round" transform="matrix(3.102397, 0, 0, 3.101252, -254.518138, -253.318004)" fill="none" stroke-linejoin="round" d="M 173.760079 155.380055 C 193.520502 142.620591 211.430039 127.650578 229.610283 112.719612 " stroke="rgb(21.179199%, 37.249756%, 62.748718%)" stroke-width="1.107" stroke-opacity="1" stroke-miterlimit="10"/><path stroke-linecap="round" transform="matrix(3.102397, 0, 0, 3.101252, -254.518138, -253.318004)" fill="none" stroke-linejoin="round" d="M 248.219883 110.879377 C 230.620087 123.78999 213.540302 137.399665 197.029633 151.679432 " stroke="rgb(21.179199%, 37.249756%, 62.748718%)" stroke-width="1.107" stroke-opacity="1" stroke-miterlimit="10"/><path fill="rgb(93.728638%, 49.409485%, 41.958618%)" d="M 223.375 235.003906 C 226.230469 396.207031 222.476562 561.535156 212.175781 722.429688 C 211.925781 726.367188 211.742188 730.648438 213.945312 733.964844 C 215.527344 736.351562 218.132812 737.875 220.675781 739.238281 C 242.921875 751.148438 296.996094 751.984375 322.1875 748.914062 C 328.734375 748.105469 335.621094 746.617188 340.429688 742.183594 C 347.75 735.484375 348.0625 724.445312 347.8125 714.644531 C 344.027344 553.441406 346.355469 392.828125 351.628906 231.625 C 325.226562 253.984375 254.089844 255.070312 226.820312 233.734375 Z M 223.375 235.003906 " fill-opacity="1" fill-rule="nonzero"/><path fill="rgb(99.21875%, 82.348633%, 54.119873%)" d="M 351.660156 231.625 C 410.109375 180.734375 480.65625 121.996094 543.511719 76.65625 C 550.304688 262.761719 540.75 424.335938 550.027344 600.519531 C 499.117188 633.390625 403.285156 712.785156 340.675781 742.183594 " fill-opacity="1" fill-rule="nonzero"/><path stroke-linecap="round" transform="matrix(3.102397, 0, 0, 3.101252, -254.518138, -253.318004)" fill="none" stroke-linejoin="round" d="M 207.660273 175.239726 C 220.539677 165.659422 233.430413 156.080377 246.309818 146.500072 C 245.739442 152.399908 245.330232 158.319896 245.069597 164.249961 C 231.599672 173.190403 218.73034 183.030179 206.579959 193.689937 C 206.709647 189.239869 206.729793 184.789801 206.849408 180.34981 Z M 207.660273 175.239726 " stroke="rgb(21.179199%, 37.249756%, 62.748718%)" stroke-width="1.107" stroke-opacity="1" stroke-miterlimit="10"/><path stroke-linecap="round" transform="matrix(3.102397, 0, 0, 3.101252, -254.518138, -253.318004)" fill="none" stroke-linejoin="round" d="M 215.549836 196.979939 C 223.789432 190.849602 232.030286 184.720525 240.269882 178.590188 C 239.909777 182.370163 239.640328 186.150139 239.470349 189.940191 C 230.850503 195.659907 222.619722 201.95021 214.849773 208.769532 C 214.930356 205.930457 214.940429 203.080046 215.029825 200.229634 Z M 215.549836 196.979939 " stroke="rgb(21.179199%, 37.249756%, 62.748718%)" stroke-width="0.708" stroke-opacity="1" stroke-miterlimit="10"/><path stroke-linecap="round" transform="matrix(3.102397, 0, 0, 3.101252, -254.518138, -253.318004)" fill="none" stroke-linejoin="round" d="M 156.759618 171.57941 C 167.829685 176.869612 181.309684 176.810412 192.320573 171.419444 " stroke="rgb(21.179199%, 37.249756%, 62.748718%)" stroke-width="1.107" stroke-opacity="1" stroke-miterlimit="10"/><path stroke-linecap="round" transform="matrix(3.102397, 0, 0, 3.101252, -254.518138, -253.318004)" fill="none" stroke-linejoin="round" d="M 155.310386 182.619558 C 167.699997 187.05955 180.530296 187.209439 193.019378 183.060409 " stroke="rgb(21.179199%, 37.249756%, 62.748718%)" stroke-width="1.107" stroke-opacity="1" stroke-miterlimit="10"/><path stroke-linecap="round" transform="matrix(3.102397, 0, 0, 3.101252, -254.518138, -253.318004)" fill="none" stroke-linejoin="round" d="M 163.309492 197.899426 C 161.840114 233.299697 162.870063 270.289547 160.460133 301.249826 C 165.929693 301.840565 174.079892 301.980378 179.569598 301.450098 C 179.850379 267.2502 180.139973 233.050301 180.419495 198.850403 C 176.639656 199.079645 174.330454 199.119951 170.540542 199.119951 Z M 163.309492 197.899426 " stroke="rgb(21.179199%, 37.249756%, 62.748718%)" stroke-width="1.107" stroke-opacity="1" stroke-miterlimit="10"/><path stroke-linecap="round" transform="matrix(3.102397, 0, 0, 3.101252, -254.518138, -253.318004)" fill-opacity="1" fill="rgb(100%, 100%, 100%)" fill-rule="nonzero" stroke-linejoin="round" d="M 293.979604 132.459624 C 288.730388 135.220605 281.120346 135.579583 275.230244 134.890597 C 273.530449 134.690326 266.499597 133.439571 265.09947 132.459624 C 263.320352 134.830138 260.839911 137.429895 258.660397 140.12034 C 246.31989 155.349825 233.960497 170.589386 222.629794 186.589729 C 221.990168 187.5004 221.379501 188.840584 222.190366 189.59003 C 222.520252 189.889808 222.979826 189.980497 223.420514 190.049774 C 226.520435 190.5599 229.650574 190.879831 232.789528 191.009567 C 236.309991 191.150639 239.879559 191.049874 243.300552 190.219816 C 245.830098 189.610183 248.240028 188.610083 250.639886 187.620059 C 251.570366 187.239668 252.489514 186.860537 253.419994 186.47007 C 253.960151 186.249645 254.510381 186.020403 255.010246 185.710548 C 255.769488 185.230651 256.4003 184.570635 257.009708 183.919437 C 268.640078 171.500057 279.119625 157.999965 288.240595 143.629508 C 290.399964 140.250076 293.319832 136.419718 293.979604 132.459624 Z M 293.979604 132.459624 " stroke="rgb(21.179199%, 37.249756%, 62.748718%)" stroke-width="0.911" stroke-opacity="1" stroke-miterlimit="10"/><path stroke-linecap="round" transform="matrix(3.102397, 0, 0, 3.101252, -254.518138, -253.318004)" fill-opacity="1" fill="rgb(100%, 100%, 100%)" fill-rule="nonzero" stroke-linejoin="round" d="M 216.980182 188.150339 C 229.5297 169.730358 244.869399 152.379754 258.939919 135.08961 C 263.330425 129.689825 263.170518 130.890197 265.819679 131.509906 C 252.189847 149.879504 234.009602 170.949624 220.529604 189.260022 Z M 216.980182 188.150339 " stroke="rgb(21.179199%, 37.249756%, 62.748718%)" stroke-width="0.911" stroke-opacity="1" stroke-miterlimit="10"/><path stroke-linecap="round" transform="matrix(3.102397, 0, 0, 3.101252, -254.518138, -253.318004)" fill="none" stroke-linejoin="round" d="M 234.620269 185.220575 C 246.880193 168.910377 259.540513 152.910034 272.579824 137.229623 " stroke="rgb(21.179199%, 37.249756%, 62.748718%)" stroke-width="0.911" stroke-opacity="1" stroke-miterlimit="10"/><path stroke-linecap="round" transform="matrix(3.102397, 0, 0, 3.101252, -254.518138, -253.318004)" fill="none" stroke-linejoin="round" d="M 289.970608 134.380471 C 277.949915 147.729415 265.969513 162.160331 255.06061 176.430022 " stroke="rgb(21.179199%, 37.249756%, 62.748718%)" stroke-width="0.911" stroke-opacity="1" stroke-miterlimit="10"/><path fill="rgb(59.609985%, 83.139038%, 88.238525%)" d="M 415.507812 329.78125 C 444.824219 459.195312 469.519531 593.042969 488.195312 724.445312 C 488.660156 727.671875 489.21875 731.144531 491.546875 733.4375 C 493.222656 735.082031 495.578125 735.886719 497.84375 736.570312 C 517.761719 742.433594 578.289062 734.925781 598.082031 728.226562 C 603.234375 726.492188 608.507812 724.132812 611.640625 719.761719 C 616.417969 713.125 614.804688 704.195312 612.972656 696.347656 C 582.910156 567.085938 557.875 437.269531 535.105469 306.457031 C 517.574219 328.878906 443.613281 340.851562 418.082031 328.199219 Z M 415.507812 329.78125 " fill-opacity="1" fill-rule="nonzero"/><path fill="rgb(59.609985%, 83.139038%, 88.238525%)" d="M 535.105469 306.425781 C 573.667969 255.628906 620.667969 196.457031 663.761719 149.410156 C 700.429688 298.238281 719.820312 430.042969 756.832031 570.46875 C 721.308594 605.480469 657.402344 685.523438 611.855469 719.699219 " fill-opacity="1" fill-rule="nonzero"/><path stroke-linecap="round" transform="matrix(3.102397, 0, 0, 3.101252, -254.518138, -253.318004)" fill="none" stroke-linejoin="round" d="M 220.529604 198.939833 C 230.330492 201.349394 246.599412 199.320223 254.579632 193.129427 " stroke="rgb(21.179199%, 37.249756%, 62.748718%)" stroke-width="0.911" stroke-opacity="1" stroke-miterlimit="10"/><path stroke-linecap="round" transform="matrix(3.102397, 0, 0, 3.101252, -254.518138, -253.318004)" fill="none" stroke-linejoin="round" d="M 221.209522 208.080546 C 231.939631 209.579437 247.720017 207.829892 257.090291 202.3898 " stroke="rgb(21.179199%, 37.249756%, 62.748718%)" stroke-width="0.911" stroke-opacity="1" stroke-miterlimit="10"/><path stroke-linecap="round" transform="matrix(3.102397, 0, 0, 3.101252, -254.518138, -253.318004)" fill="none" stroke-linejoin="round" d="M 235.630073 219.329784 C 240.37061 248.099667 247.400204 277.739915 250.649959 303.090061 C 255.16008 302.65047 261.750245 301.389639 266.080314 300.049454 C 260.580535 272.439636 255.079497 244.829818 249.579718 217.220001 C 246.580526 218.039982 244.719566 218.45942 241.670009 219.090465 Z M 235.630073 219.329784 " stroke="rgb(21.179199%, 37.249756%, 62.748718%)" stroke-width="0.911" stroke-opacity="1" stroke-miterlimit="10"/><path fill="rgb(99.21875%, 82.348633%, 54.119873%)" d="M 600.84375 273.554688 C 586.789062 281.277344 579.097656 299.230469 577.699219 315.078125 C 575.777344 336.632812 584.773438 364.667969 608.816406 368.667969 C 633.296875 372.730469 649.582031 353.132812 654.980469 331.703125 C 657.277344 322.648438 658.488281 313.125 656.625 303.976562 C 652.964844 285.988281 634.660156 269.210938 615.269531 269.707031 C 609.871094 269.832031 605.0625 271.226562 600.84375 273.554688 Z M 600.84375 273.554688 " fill-opacity="1" fill-rule="nonzero"/><path stroke-linecap="round" transform="matrix(3.102397, 0, 0, 3.101252, -254.518138, -253.318004)" fill="none" stroke-linejoin="round" d="M 275.86987 220.779551 C 284.799456 212.579738 293.240509 203.829491 301.109927 194.609424 C 301.579574 195.939532 303.189971 199.749737 304.08016 200.850603 C 296.990129 208.560443 286.749813 217.260307 278.429634 227.229819 C 277.97006 225.800205 277.500413 224.370591 277.03958 222.939717 Z M 275.86987 220.779551 " stroke="rgb(21.179199%, 37.249756%, 62.748718%)" stroke-width="0.911" stroke-opacity="1" stroke-miterlimit="10"/><path stroke-linecap="round" transform="matrix(3.102397, 0, 0, 3.101252, -254.518138, -253.318004)" fill="none" stroke-linejoin="round" d="M 277.300215 135.409541 C 262.760049 152.420061 250.439688 168.280591 237.560284 186.579653 " stroke="rgb(21.179199%, 37.249756%, 62.748718%)" stroke-width="0.911" stroke-opacity="1" stroke-miterlimit="10"/><path stroke-linecap="round" transform="matrix(3.102397, 0, 0, 3.101252, -254.518138, -253.318004)" fill="none" stroke-linejoin="round" d="M 250.740615 175.150297 C 260.449588 160.939806 270.849811 147.969993 282.619942 135.409541 " stroke="rgb(21.179199%, 37.249756%, 62.748718%)" stroke-width="0.911" stroke-opacity="1" stroke-miterlimit="10"/><path stroke-linecap="round" transform="matrix(3.102397, 0, 0, 3.101252, -254.518138, -253.318004)" fill="none" stroke-linejoin="round" d="M 278.340238 303.470451 C 270.629467 264.010581 263.20955 224.49025 256.080487 184.919537 " stroke="rgb(21.179199%, 37.249756%, 62.748718%)" stroke-width="0.911" stroke-opacity="1" stroke-miterlimit="10"/></svg>